<svg width="996" height="400" viewBox="0 0 996 400" fill="none" xmlns="http://www.w3.org/2000/svg">
<rect width="996" height="400" fill="#F5F5F5"/>
<rect width="996" height="400" fill="#D9D9D9"/>
<rect x="30" y="19" width="936" height="362" rx="25" fill="#252525"/>
<path d="M105.981 256.289C97.43 256.289 89.7816 254.355 83.0355 250.488C76.2894 246.621 70.9612 241.014 67.0511 233.666C63.1839 226.318 61.2503 217.445 61.2503 207.047C61.2503 196.562 63.2054 187.646 67.1155 180.299C71.0687 172.951 76.4183 167.344 83.1644 163.477C89.9534 159.609 97.5589 157.676 105.981 157.676C113.414 157.676 120.096 159.051 126.026 161.801C131.998 164.551 136.875 168.525 140.657 173.725C144.438 178.924 146.758 185.219 147.617 192.609H127.121C126.348 187.324 124.092 183.178 120.354 180.17C116.616 177.119 111.975 175.594 106.432 175.594C99.0413 175.594 93.0901 178.344 88.5784 183.844C84.0667 189.301 81.8109 197.035 81.8109 207.047C81.8109 217.273 84.0667 225.051 88.5784 230.379C93.1331 235.707 99.0628 238.371 106.367 238.371C111.739 238.371 116.293 236.953 120.032 234.117C123.813 231.281 126.176 227.307 127.121 222.193H147.617C146.887 228.08 144.782 233.623 141.301 238.822C137.864 244.021 133.159 248.232 127.186 251.455C121.256 254.678 114.188 256.289 105.981 256.289ZM173.247 158.965V255H153.008V158.965H173.247ZM177.091 175.723V158.965H255.917V175.723H226.655V255H206.417V175.723H177.091ZM301.503 158.965V255H281.265V158.965H301.503ZM328.615 213.363V255H308.634V182.941H328.292V195.768H329.001C330.634 191.557 333.234 188.227 336.8 185.777C340.367 183.285 344.814 182.039 350.142 182.039C357.662 182.039 363.677 184.467 368.189 189.322C372.744 194.135 375.021 200.752 375.021 209.174V255H355.041V212.719C355.041 208.293 353.902 204.834 351.625 202.342C349.39 199.85 346.275 198.604 342.279 198.604C338.24 198.604 334.953 199.914 332.417 202.535C329.882 205.113 328.615 208.723 328.615 213.363ZM420.051 182.941V198.023H406.386V232.828C406.386 237.512 408.664 239.854 413.219 239.854C413.992 239.854 414.83 239.789 415.732 239.66C416.677 239.531 417.494 239.381 418.181 239.209L421.34 254.162C417.086 255.408 412.961 256.031 408.965 256.031C401.832 256.031 396.289 254.227 392.336 250.617C388.426 247.008 386.47 241.959 386.47 235.471V198.023H376.674V182.941H386.47V165.797H406.386V182.941H420.051ZM456.637 256.418C449.246 256.418 442.887 254.914 437.559 251.906C432.23 248.898 428.127 244.623 425.248 239.08C422.369 233.494 420.93 226.898 420.93 219.293C420.93 211.902 422.348 205.414 425.184 199.828C428.062 194.242 432.102 189.881 437.301 186.744C442.5 183.607 448.623 182.039 455.67 182.039C462.029 182.039 467.766 183.393 472.879 186.1C478.035 188.807 482.117 192.867 485.125 198.281C488.176 203.695 489.701 210.484 489.701 218.648V224.062H440.588C440.803 229.52 442.393 233.795 445.357 236.889C448.322 239.982 452.189 241.529 456.959 241.529C460.268 241.529 463.104 240.82 465.467 239.402C467.873 237.984 469.592 235.922 470.623 233.215L489.057 234.439C487.639 241.057 484.094 246.385 478.422 250.424C472.793 254.42 465.531 256.418 456.637 256.418ZM440.717 211.752H470.559C470.086 207.197 468.625 203.588 466.176 200.924C463.727 198.26 460.289 196.928 455.863 196.928C451.395 196.928 447.85 198.324 445.229 201.117C442.65 203.867 441.146 207.412 440.717 211.752ZM493.61 255V182.941H512.946V195.574H513.719C515.008 191.105 517.199 187.732 520.293 185.455C523.387 183.135 526.953 181.975 530.992 181.975C531.981 181.975 533.055 182.039 534.215 182.168C535.375 182.297 536.385 182.469 537.244 182.684V200.344C536.299 200.043 534.989 199.807 533.313 199.635C531.68 199.42 530.176 199.312 528.801 199.312C524.418 199.312 520.787 200.709 517.908 203.502C515.03 206.252 513.59 209.84 513.59 214.266V255H493.61ZM558.362 213.363V255H538.381V182.941H558.04V195.768H558.749C560.381 191.557 562.981 188.227 566.547 185.777C570.114 183.285 574.561 182.039 579.889 182.039C587.409 182.039 593.424 184.467 597.936 189.322C602.491 194.135 604.768 200.752 604.768 209.174V255H584.788V212.719C584.788 208.293 583.649 204.834 581.372 202.342C579.137 199.85 576.022 198.604 572.026 198.604C567.987 198.604 564.7 199.914 562.165 202.535C559.629 205.113 558.362 208.723 558.362 213.363ZM608.225 175.723V158.965H687.051V175.723H657.79V255H637.551V175.723H608.225ZM690.573 255V182.941H709.909V195.574H710.683C711.972 191.105 714.163 187.732 717.257 185.455C720.351 183.135 723.917 181.975 727.956 181.975C728.944 181.975 730.018 182.039 731.179 182.168C732.339 182.297 733.349 182.469 734.208 182.684V200.344C733.263 200.043 731.952 199.807 730.276 199.635C728.643 199.42 727.14 199.312 725.765 199.312C721.382 199.312 717.751 200.709 714.872 203.502C711.993 206.252 710.554 209.84 710.554 214.266V255H690.573ZM755.905 256.354C749.03 256.354 743.316 254.57 738.761 251.004C734.249 247.395 731.993 242.023 731.993 234.891C731.993 229.52 733.239 225.309 735.732 222.258C738.267 219.164 741.597 216.908 745.722 215.49C749.847 214.029 754.273 213.084 758.999 212.654C765.273 212.053 769.741 211.43 772.405 210.785C775.112 210.098 776.466 208.594 776.466 206.273V205.951C776.466 202.986 775.521 200.688 773.63 199.055C771.739 197.422 769.011 196.605 765.445 196.605C761.878 196.605 758.956 197.379 756.679 198.926C754.445 200.473 752.962 202.449 752.232 204.855L734.056 201.955C735.775 195.682 739.384 190.805 744.884 187.324C750.427 183.801 757.302 182.039 765.509 182.039C770.837 182.039 775.843 182.877 780.527 184.553C785.253 186.229 789.077 188.871 791.999 192.48C794.921 196.047 796.382 200.688 796.382 206.402V255H777.497V244.945H776.917C775.155 248.34 772.534 251.09 769.054 253.195C765.616 255.301 761.234 256.354 755.905 256.354ZM751.007 234.246C751.007 236.996 751.995 239.08 753.972 240.498C755.991 241.873 758.527 242.561 761.577 242.561C765.96 242.561 769.548 241.293 772.341 238.758C775.177 236.223 776.595 233.064 776.595 229.283V221.613C775.821 222.129 774.597 222.602 772.921 223.031C771.288 223.461 769.548 223.826 767.7 224.127C765.853 224.385 764.198 224.621 762.737 224.836C759.214 225.352 756.378 226.361 754.23 227.865C752.081 229.326 751.007 231.453 751.007 234.246ZM835.675 256.418C828.285 256.418 821.947 254.85 816.662 251.713C811.376 248.576 807.316 244.215 804.48 238.629C801.687 233.043 800.29 226.598 800.29 219.293C800.29 211.902 801.708 205.414 804.544 199.828C807.423 194.242 811.505 189.881 816.79 186.744C822.076 183.607 828.349 182.039 835.611 182.039C841.884 182.039 847.384 183.178 852.111 185.455C856.837 187.732 860.576 190.934 863.326 195.059C866.076 199.184 867.58 204.039 867.837 209.625H849.017C848.458 206.059 847.062 203.18 844.828 200.988C842.593 198.754 839.628 197.637 835.933 197.637C831.292 197.637 827.576 199.506 824.783 203.244C821.99 206.939 820.593 212.203 820.593 219.035C820.593 225.91 821.968 231.26 824.718 235.084C827.511 238.908 831.249 240.82 835.933 240.82C839.371 240.82 842.271 239.746 844.634 237.598C846.997 235.449 848.458 232.441 849.017 228.574H867.837C867.537 234.074 866.054 238.93 863.39 243.141C860.726 247.309 857.031 250.574 852.304 252.938C847.621 255.258 842.078 256.418 835.675 256.418ZM871.552 158.965H891.533V210.334H892.629L915.638 182.941H938.584L911.9 214.201L939.873 255H916.541L896.947 225.932L891.533 232.055V255H871.552V158.965Z" fill="#E1E1E1"/>
</svg>
