<svg width="400" height="400" viewBox="0 0 400 400" fill="none" xmlns="http://www.w3.org/2000/svg">
<rect width="400" height="400" fill="#F5F5F5"/>
<rect width="400" height="400" fill="#D9D9D9"/>
<rect x="19" y="19" width="362" height="362" rx="25" fill="#252525"/>
<path d="M115.806 268.012C102.462 268.012 90.5257 264.994 79.9977 258.959C69.4697 252.924 61.1546 244.173 55.0524 232.706C49.0172 221.239 45.9996 207.392 45.9996 191.164C45.9996 174.802 49.0508 160.888 55.153 149.421C61.3222 137.954 69.6709 129.203 80.1989 123.168C90.7939 117.133 102.663 114.115 115.806 114.115C127.407 114.115 137.835 116.261 147.089 120.553C156.409 124.844 164.02 131.047 169.922 139.161C175.823 147.275 179.444 157.099 180.785 168.633H148.798C147.591 160.385 144.071 153.914 138.237 149.22C132.403 144.459 125.161 142.078 116.51 142.078C104.977 142.078 95.6891 146.37 88.6481 154.953C81.6071 163.469 78.0866 175.54 78.0866 191.164C78.0866 207.124 81.6071 219.261 88.6481 227.576C95.7562 235.891 105.01 240.049 116.41 240.049C124.792 240.049 131.9 237.836 137.734 233.41C143.635 228.984 147.323 222.782 148.798 214.802H180.785C179.645 223.989 176.359 232.639 170.927 240.753C165.563 248.867 158.22 255.438 148.899 260.468C139.645 265.497 128.614 268.012 115.806 268.012ZM222.842 116.127V266H191.258V116.127H222.842ZM230.901 142.279V116.127H353.917V142.279H308.251V266H276.667V142.279H230.901Z" fill="#E1E1E1"/>
</svg>
