<svg width="996" height="400" viewBox="0 0 996 400" fill="none" xmlns="http://www.w3.org/2000/svg">
<rect width="996" height="400" fill="#F5F5F5"/>
<rect width="996" height="400" fill="#D9D9D9"/>
<rect x="30" y="19" width="936" height="362" rx="25" fill="#252525"/>
<path d="M104.524 143.318V267H78.46V143.318H104.524ZM139.441 213.377V267H113.708V174.197H139.026V190.716H139.939C142.042 185.293 145.39 181.004 149.983 177.85C154.576 174.64 160.303 173.035 167.165 173.035C176.85 173.035 184.597 176.162 190.408 182.415C196.274 188.613 199.206 197.135 199.206 207.981V267H173.474V212.547C173.474 206.847 172.008 202.392 169.075 199.183C166.197 195.973 162.185 194.368 157.038 194.368C151.837 194.368 147.603 196.056 144.338 199.432C141.073 202.752 139.441 207.4 139.441 213.377ZM257.199 174.197V193.621H239.601V238.445C239.601 244.477 242.534 247.493 248.4 247.493C249.396 247.493 250.475 247.41 251.637 247.244C252.855 247.078 253.906 246.884 254.792 246.663L258.859 265.921C253.381 267.526 248.068 268.328 242.922 268.328C233.735 268.328 226.597 266.004 221.506 261.355C216.47 256.707 213.952 250.205 213.952 241.849V193.621H201.335V174.197H213.952V152.117H239.601V174.197H257.199ZM304.318 268.826C294.799 268.826 286.609 266.889 279.747 263.016C272.885 259.142 267.6 253.636 263.893 246.497C260.185 239.303 258.331 230.809 258.331 221.014C258.331 211.495 260.157 203.139 263.81 195.945C267.517 188.751 272.719 183.134 279.415 179.095C286.111 175.055 293.997 173.035 303.072 173.035C311.263 173.035 318.65 174.778 325.236 178.265C331.876 181.751 337.133 186.98 341.007 193.953C344.936 200.926 346.901 209.669 346.901 220.184V227.156H283.649C283.925 234.184 285.973 239.69 289.791 243.675C293.61 247.659 298.59 249.651 304.733 249.651C308.994 249.651 312.646 248.738 315.69 246.912C318.789 245.086 321.002 242.43 322.33 238.943L346.071 240.521C344.244 249.043 339.679 255.905 332.374 261.106C325.125 266.253 315.773 268.826 304.318 268.826ZM283.815 211.302H322.247C321.639 205.436 319.757 200.787 316.603 197.356C313.448 193.925 309.021 192.21 303.321 192.21C297.566 192.21 293.001 194.008 289.625 197.605C286.305 201.147 284.368 205.713 283.815 211.302ZM351.934 267V174.197H376.837V190.467H377.833C379.493 184.712 382.315 180.368 386.299 177.435C390.284 174.446 394.877 172.952 400.079 172.952C401.351 172.952 402.735 173.035 404.229 173.201C405.723 173.367 407.024 173.589 408.13 173.865V196.609C406.913 196.222 405.225 195.918 403.067 195.696C400.964 195.42 399.027 195.281 397.256 195.281C391.612 195.281 386.936 197.08 383.228 200.677C379.52 204.218 377.667 208.839 377.667 214.539V267H351.934ZM435.327 213.377V267H409.595V174.197H434.912V190.716H435.825C437.928 185.293 441.276 181.004 445.869 177.85C450.462 174.64 456.19 173.035 463.052 173.035C472.736 173.035 480.483 176.162 486.294 182.415C492.16 188.613 495.093 197.135 495.093 207.981V267H469.36V212.547C469.36 206.847 467.894 202.392 464.961 199.183C462.083 195.973 458.071 194.368 452.925 194.368C447.723 194.368 443.49 196.056 440.225 199.432C436.96 202.752 435.327 207.4 435.327 213.377ZM499.545 164.9V143.318H601.064V164.9H563.378V267H537.314V164.9H499.545ZM605.599 267V174.197H630.502V190.467H631.498C633.158 184.712 635.98 180.368 639.965 177.435C643.949 174.446 648.542 172.952 653.744 172.952C655.017 172.952 656.4 173.035 657.894 173.201C659.388 173.367 660.689 173.589 661.796 173.865V196.609C660.578 196.222 658.89 195.918 656.732 195.696C654.629 195.42 652.693 195.281 650.922 195.281C645.277 195.281 640.601 197.08 636.893 200.677C633.186 204.218 631.332 208.839 631.332 214.539V267H605.599ZM689.739 268.743C680.885 268.743 673.525 266.447 667.659 261.854C661.849 257.205 658.944 250.288 658.944 241.102C658.944 234.184 660.548 228.761 663.758 224.832C667.023 220.848 671.312 217.942 676.624 216.116C681.937 214.235 687.637 213.017 693.724 212.464C701.803 211.689 707.558 210.887 710.989 210.057C714.476 209.171 716.219 207.234 716.219 204.246V203.831C716.219 200.013 715.001 197.052 712.567 194.949C710.132 192.846 706.618 191.795 702.025 191.795C697.431 191.795 693.668 192.791 690.736 194.783C687.858 196.775 685.949 199.321 685.008 202.42L661.6 198.685C663.813 190.605 668.462 184.324 675.545 179.842C682.684 175.304 691.538 173.035 702.108 173.035C708.97 173.035 715.417 174.114 721.448 176.272C727.536 178.431 732.461 181.834 736.224 186.482C739.987 191.076 741.868 197.052 741.868 204.412V267H717.547V254.051H716.8C714.531 258.423 711.155 261.964 706.673 264.676C702.246 267.387 696.601 268.743 689.739 268.743ZM683.431 240.271C683.431 243.813 684.704 246.497 687.249 248.323C689.85 250.094 693.115 250.979 697.044 250.979C702.689 250.979 707.309 249.347 710.906 246.082C714.559 242.817 716.385 238.75 716.385 233.88V224.002C715.389 224.666 713.812 225.275 711.654 225.828C709.551 226.382 707.309 226.852 704.93 227.239C702.55 227.571 700.42 227.876 698.538 228.152C694.001 228.816 690.348 230.117 687.581 232.054C684.814 233.935 683.431 236.674 683.431 240.271ZM792.473 268.826C782.955 268.826 774.793 266.806 767.986 262.767C761.179 258.727 755.95 253.11 752.297 245.916C748.7 238.722 746.902 230.421 746.902 221.014C746.902 211.495 748.728 203.139 752.38 195.945C756.088 188.751 761.345 183.134 768.152 179.095C774.959 175.055 783.038 173.035 792.39 173.035C800.47 173.035 807.553 174.502 813.64 177.435C819.727 180.368 824.542 184.49 828.084 189.803C831.625 195.115 833.562 201.368 833.894 208.562H809.656C808.936 203.969 807.138 200.262 804.26 197.439C801.383 194.562 797.564 193.123 792.805 193.123C786.829 193.123 782.042 195.53 778.445 200.345C774.848 205.104 773.049 211.883 773.049 220.682C773.049 229.536 774.82 236.425 778.362 241.351C781.959 246.276 786.773 248.738 792.805 248.738C797.232 248.738 800.968 247.355 804.011 244.588C807.055 241.821 808.936 237.947 809.656 232.967H833.894C833.507 240.05 831.598 246.303 828.167 251.727C824.736 257.094 819.977 261.3 813.889 264.344C807.857 267.332 800.719 268.826 792.473 268.826ZM838.679 143.318H864.411V209.476H865.822L895.456 174.197H925.007L890.642 214.456L926.667 267H896.618L871.384 229.563L864.411 237.449V267H838.679V143.318Z" fill="#E1E1E1"/>
</svg>
